<?xml version="1.0" encoding="UTF-8"?>
<svg xmlns="http://www.w3.org/2000/svg" xmlns:xlink="http://www.w3.org/1999/xlink" version="1.1" width="512" height="512" x="0" y="0" viewBox="0 0 32 32" style="enable-background:new 0 0 512 512" xml:space="preserve" class="">
  <rect width="32" height="32" rx="6.4" ry="6.4" fill="#aa0153" shape="rounded"/>
  <g transform="matrix(0.8,0,0,0.8,3.1999999999999993,3.200050926208494)">
    <g data-name="Layer 3">
      <path d="M29 24a6.38 6.38 0 0 0-3.78 1.15 4.79 4.79 0 0 1-5.45 0A6.38 6.38 0 0 0 16 24a6.32 6.32 0 0 0-3.77 1.15 4.45 4.45 0 0 1-2.74.85 4.44 4.44 0 0 1-2.72-.85A6.32 6.32 0 0 0 3 24a1 1 0 0 0 0 2 4.44 4.44 0 0 1 2.72.85A6.37 6.37 0 0 0 9.49 28a6.38 6.38 0 0 0 3.78-1.15A4.44 4.44 0 0 1 16 26a4.48 4.48 0 0 1 2.73.85A6.38 6.38 0 0 0 22.5 28a6.32 6.32 0 0 0 3.77-1.15A4.5 4.5 0 0 1 29 26a1 1 0 0 0 0-2ZM2 17a1 1 0 0 0 1 1h10a5 5 0 0 1 4.92 4.16 1 1 0 0 0 1 .84h.16a1 1 0 0 0 .83-1.15A7 7 0 0 0 13 16a5 5 0 0 1-4-2h8a9 9 0 0 1 9 8.1 1 1 0 0 0 1 .9h.1a1 1 0 0 0 .9-1.1 11 11 0 0 0-8.1-9.52A6.94 6.94 0 0 0 13 4H3a1 1 0 0 0 0 2h5.11a7 7 0 0 0 0 10H3a1 1 0 0 0-1 1ZM13 6a5 5 0 0 1 5 5 5.1 5.1 0 0 1-.12 1H8.1a5.47 5.47 0 0 1-.1-1 5 5 0 0 1 5-5Z" fill="#ffffff" opacity="1" data-original="#000000" class=""/>
    </g>
  </g>
</svg>
