<?xml version="1.0" encoding="UTF-8"?>
<svg xmlns="http://www.w3.org/2000/svg" xmlns:xlink="http://www.w3.org/1999/xlink" version="1.1" width="512" height="512" x="0" y="0" viewBox="0 0 500 500" style="enable-background:new 0 0 512 512" xml:space="preserve">
  <rect width="500" height="500" rx="100" ry="100" fill="#343e7b" shape="rounded"/>
  <g transform="matrix(NaN,NaN,NaN,NaN,NaN,NaN)">
    <path fill-rule="evenodd" d="M176.802 112.025c3.922 0 7.684.683 11.176 1.933a.882.882 0 0 0 1.179-.911C185.919 75.949 215.105 43.9 252.498 43.9c33.339 0 60.681 25.66 63.364 58.307a.883.883 0 0 0 1.36.672c19.802-12.691 46.752 1.341 46.752 25.662 0 3.979-.765 7.78-2.154 11.264a.884.884 0 0 0 1.09 1.171c11.988-3.804 24.873 5.059 24.873 18.255 0 10.565-8.565 19.13-19.13 19.13h-191.85c-18.318 0-33.168-14.85-33.168-33.168-.001-18.319 14.849-33.168 33.167-33.168zM80.237 456.101h339.628a6.643 6.643 0 1 0 0-13.286h-332.1a.888.888 0 0 1-.886-.886v-21.918c0-.488.398-.885.886-.885h7.062a6.643 6.643 0 1 0 0-13.286h-7.062a.888.888 0 0 1-.886-.886v-21.918c0-.488.398-.886.886-.886h25.65a6.643 6.643 0 1 0 0-13.286h-25.65a.887.887 0 0 1-.886-.885v-21.918c0-.488.398-.885.886-.885h7.062a6.643 6.643 0 1 0 0-13.286h-7.062a.888.888 0 0 1-.886-.886v-21.918c0-.488.398-.885.886-.885h25.65a6.643 6.643 0 1 0 0-13.286h-25.65a.887.887 0 0 1-.886-.885v-21.918c0-.488.398-.886.886-.886h7.062a6.643 6.643 0 1 0 0-13.286h-7.062a.887.887 0 0 1-.886-.885v-21.918c0-.488.398-.886.886-.886h25.65a6.643 6.643 0 1 0 0-13.286h-25.65a.888.888 0 0 1-.886-.886V173.17a6.643 6.643 0 1 0-13.286 0c0 18.123-.23 36.393 0 54.497v221.791a6.645 6.645 0 0 0 6.644 6.643zm238.319-119.407V410c0 11.96-9.785 21.745-21.745 21.745h-62.207c-11.96 0-21.745-9.785-21.745-21.745v-3.701c0-.488.398-.886.886-.886h24.03a6.643 6.643 0 1 0 0-13.286h-24.03a.888.888 0 0 1-.886-.886v-17.917c0-.488.398-.885.886-.885h24.03a6.643 6.643 0 1 0 0-13.286h-24.03a.887.887 0 0 1-.886-.885v-17.917c0-.488.398-.886.886-.886h24.03a6.643 6.643 0 1 0 0-13.286l-26.153.073a.877.877 0 0 1-.946-.533c-3.799-9.027-10.534-12.734-19.072-16.543-6.426-2.867-10.33-8.884-10.33-15.92v-9.139c0-4.043 3.297-7.34 7.34-7.34h154.188c4.043 0 7.34 3.297 7.34 7.34v9.139c0 7.036-3.904 13.053-10.329 15.92a122.649 122.649 0 0 0-6.377 3.069c-9.374 4.85-14.88 13.896-14.88 24.449zm11.116-84.71c-7.58 0-13.767-6.716-14.126-15.153-.436-10.244 7.217-22.219 13.066-29.617.755-.956 1.381-.87 2.119 0 6.236 7.353 13.351 18.846 13.077 29.321-.225 8.575-6.468 15.449-14.136 15.449zm-63.964 0c-7.58 0-13.767-6.716-14.126-15.153-.436-10.244 7.217-22.219 13.066-29.617.755-.956 1.381-.87 2.119 0 6.236 7.353 13.351 18.846 13.077 29.321-.225 8.575-6.468 15.449-14.136 15.449zm-63.963 0c-7.58 0-13.767-6.716-14.126-15.153-.436-10.244 7.217-22.219 13.066-29.617.755-.956 1.381-.87 2.119 0 6.236 7.353 13.351 18.846 13.077 29.321-.226 8.575-6.468 15.449-14.136 15.449z" clip-rule="evenodd" fill="#ffffff" opacity="1" data-original="#000000"/>
  </g>
</svg>
