<?xml version="1.0" encoding="UTF-8"?>
<svg xmlns="http://www.w3.org/2000/svg" xmlns:xlink="http://www.w3.org/1999/xlink" version="1.1" width="512" height="512" x="0" y="0" viewBox="0 0 450 450" style="enable-background:new 0 0 512 512" xml:space="preserve" class="">
  <rect width="450" height="450" rx="90" ry="90" fill="#cec730" shape="rounded"/>
  <g transform="matrix(0.8,0,0,0.8,45.04999847412108,45.14999771118161)">
    <path d="M225.3 147.3c-48.2 0-93.6-4.7-127.8-13.3-25.6-6.4-56.2-17.9-56.2-36.5S71.9 67.4 97.5 61c34.2-8.5 79.6-13.3 127.8-13.3 17.8 0 35.4.6 52.3 1.9 2.8.2 4.8 2.6 4.6 5.4s-2.6 4.8-5.4 4.6c-16.7-1.3-34-1.9-51.6-1.9-47.4 0-91.9 4.6-125.3 13-35.9 9-48.6 19.7-48.6 26.8s12.8 17.8 48.6 26.8c33.4 8.4 77.9 13 125.3 13 17.6 0 34.9-.6 51.6-1.9 2.7-.2 5.2 1.9 5.4 4.6.2 2.8-1.9 5.2-4.6 5.4-16.9 1.3-34.5 1.9-52.3 1.9zM358 132.6c-2.2 0-4.2-1.5-4.8-3.7-.7-2.7.8-5.4 3.5-6.1 31.4-8.7 42.6-18.7 42.6-25.2S388.1 81 356.6 72.4c-2.7-.7-4.2-3.5-3.5-6.1s3.5-4.2 6.1-3.5c33.2 9.2 50 20.9 50 34.9s-16.8 25.7-49.9 34.8c-.4.1-.9.1-1.3.1z" fill="#ffffff" opacity="1" data-original="#000000" class=""/>
    <path d="M225.3 127.5c-42.7 0-83-2.6-113.3-7.3-45-7-50.8-15.7-50.8-22.5S67 82.2 112 75.2c30.3-4.7 70.5-7.3 113.3-7.3 17.9 0 35.4.5 52.2 1.4 2.8.1 4.9 2.5 4.7 5.3-.1 2.8-2.5 4.9-5.3 4.7-16.6-.9-34-1.3-51.7-1.3-40.4 0-78.8 2.4-108.2 6.7-37.6 5.5-44.6 11.8-45.8 13.2 1.1 1.4 8.1 7.7 45.8 13.2 29.4 4.3 67.8 6.7 108.2 6.7 17.7 0 35.1-.5 51.7-1.3 2.8-.2 5.1 2 5.3 4.7.1 2.8-2 5.1-4.7 5.3-16.8.5-34.4 1-52.2 1zm132.6-11.2c-2.3 0-4.3-1.6-4.9-3.9-.6-2.7 1-5.4 3.7-6 17.6-4.1 21.7-7.8 22.5-8.9-.8-1-4.9-4.7-22.5-8.9-2.7-.6-4.4-3.3-3.7-6 .6-2.7 3.3-4.4 6-3.7 21 4.9 30.3 10.7 30.3 18.6s-9.4 13.7-30.3 18.6c-.4.2-.8.2-1.1.2z" fill="#ffffff" opacity="1" data-original="#000000" class=""/>
    <path d="M225.3 409.5c-48.2 0-93.5-4.1-127.6-11.6-37.4-8.2-56.4-19.1-56.4-32.6V97.6c0-2.8 2.2-5 5-5s5 2.2 5 5v267.7c0 4.5 10.2 14.4 48.5 22.8 33.5 7.3 78 11.4 125.5 11.4s92-4 125.5-11.4c38.3-8.4 48.5-18.3 48.5-22.8V97.6c0-2.8 2.2-5 5-5s5 2.2 5 5v267.7c0 13.4-19 24.4-56.4 32.6-34.2 7.5-79.5 11.6-127.6 11.6z" fill="#ffffff" opacity="1" data-original="#000000" class=""/>
    <path d="M224.8 388.8c-63.4 0-144.2-6.9-163-26.4-.9-.9-1.4-2.2-1.4-3.5V117.7c0-2.8 2.2-5 5-5s5 2.2 5 5v239c15.9 13.1 78.4 22.1 154.4 22.1 76.5 0 139.3-9 155.3-22.1v-239c0-2.8 2.2-5 5-5s5 2.2 5 5v241.2c0 1.3-.5 2.5-1.4 3.5-18.8 19.5-100.1 26.4-163.9 26.4z" fill="#ffffff" opacity="1" data-original="#000000" class=""/>
    <path d="M225.3 435.8c-58 0-112.5-4.1-153.6-11.4-20.2-3.6-36.1-7.9-47.4-12.6-13.5-5.7-20-12.2-20-19.7 0-10.8 13.8-19.6 42-26.9 2.7-.7 5.4.9 6.1 3.6s-.9 5.4-3.6 6.1c-27.3 7-34.5 14.1-34.5 17.1 0 4.1 12.4 14.1 59.1 22.5 40.5 7.3 94.4 11.3 151.9 11.3s111.3-4 151.9-11.3c46.8-8.4 59.1-18.4 59.1-22.5 0-3.1-7.3-10.1-34.6-17.2-2.7-.7-4.3-3.4-3.6-6.1s3.4-4.3 6.1-3.6c28.3 7.3 42 16.1 42 26.9 0 7.5-6.5 14-20 19.7-11.2 4.8-27.2 9-47.4 12.6-41 7.5-95.6 11.5-153.5 11.5z" fill="#ffffff" opacity="1" data-original="#000000" class=""/>
    <path d="M277.2 387.3c-2.8 0-5-2.2-5-5V20.7c0-2.8 2.2-5 5-5s5 2.2 5 5v361.6c0 2.8-2.2 5-5 5zm80.7-10.9c-2.8 0-5-2.2-5-5V20.7c0-2.8 2.2-5 5-5s5 2.2 5 5v350.7c0 2.7-2.3 5-5 5z" fill="#ffffff" opacity="1" data-original="#000000" class=""/>
    <path d="M357.9 108.7h-80.7c-2.8 0-5-2.2-5-5s2.2-5 5-5h80.7c2.8 0 5 2.2 5 5s-2.3 5-5 5zM357.9 157.7h-80.7c-2.8 0-5-2.2-5-5s2.2-5 5-5h80.7c2.8 0 5 2.2 5 5s-2.3 5-5 5zM357.9 206.6h-80.7c-2.8 0-5-2.2-5-5s2.2-5 5-5h80.7c2.8 0 5 2.2 5 5s-2.3 5-5 5zM357.9 255.6h-80.7c-2.8 0-5-2.2-5-5s2.2-5 5-5h80.7c2.8 0 5 2.2 5 5s-2.3 5-5 5zM357.9 304.5h-80.7c-2.8 0-5-2.2-5-5s2.2-5 5-5h80.7c2.8 0 5 2.2 5 5s-2.3 5-5 5zM357.9 353.5h-80.7c-2.8 0-5-2.2-5-5s2.2-5 5-5h80.7c2.8 0 5 2.2 5 5s-2.3 5-5 5zM84.7 344.9c-2.8 0-5-2.2-5-5V163c0-2.8 2.2-5 5-5s5 2.2 5 5v176.9c0 2.7-2.2 5-5 5z" fill="#ffffff" opacity="1" data-original="#000000" class=""/>
  </g>
</svg>
