<svg id="Layer_1" enable-background="new 0 0 512 512" height="512" viewBox="0 0 512 512" width="512" xmlns="http://www.w3.org/2000/svg"><g><g><path d="m510.35 353.552c-.918-4.533-4.199-8.253-8.561-9.708-18.397-6.142-38.322-8.268-57.615-6.146-5.58.613-10.144 4.662-11.356 10.074-4.823 21.537-23.49 33.706-39.85 36.213-17.007 2.603-31.655-4.322-40.197-19.013-8.117-15.082-5.038-28.15-1.777-41.983 4.381-18.59 9.344-39.659-19.007-59.695-14.356-10.616-27.507-23.262-41.34-34.779 30.071-28.625 66.958-74.461 57.505-120.229-.701-4.082-4.577-6.83-8.661-6.123-4.083.7-6.824 4.578-6.124 8.66 8.608 47.354-35.685 94.191-77.992 128.452-.21.166-.473.165-.684.001-38.269-29.882-79.161-75.697-79.161-114.669.267-79.309 103.143-110.254 146.237-43.615 2.241 3.483 6.885 4.49 10.366 2.248 3.484-2.241 4.49-6.882 2.248-10.365-51.189-79.146-173.534-42.434-173.851 51.734 0 11.665 2.844 23.297 7.516 34.545-5.712-.143-11.628.001-17.749.158-5.544.142-11.275.286-17.227.231-.177 0-.366.004-.55.016-10.076.648-26.793-5.668-42.955-11.772-26.838-10.135-54.589-20.617-72.951-9.869-8.578 5.02-13.926 14.029-15.897 26.779-5.016 25.868 17.563 47.028 27.521 54.936.326.259.673.49 1.037.691 1.114.616 2.377 1.313.754 7.683-1.963 13.643 6.403 24.984 15.519 36.205 2.632 3.221 7.366 3.672 10.554 1.062 3.208-2.62 3.684-7.345 1.063-10.553-8.27-10.122-12.743-16.97-12.428-23.706 2.626-11.022.072-18.913-7.597-23.471-6.54-5.273-25.235-22.158-21.676-40.097.022-.111.042-.222.059-.334 1.254-8.256 4.09-13.571 8.668-16.25 12.183-7.128 37.627 2.479 60.075 10.955 18.328 6.921 35.645 13.47 48.919 12.726 6.12.05 11.903-.096 17.497-.238 8.962-.232 17.46-.438 25.006.317 20.463 35.88 55.956 65.687 69.773 76.476 5.637 4.401 13.51 4.399 19.147-.001 3.662-2.859 8.851-7.059 14.876-12.35 5.423 4.474 10.805 9.182 16.044 13.777 8.859 7.773 18.021 15.811 27.621 22.887.042.031.084.062.127.092 38.147 25.579-6.911 54.352 16.353 96.698.034.062.069.125.104.187 11.62 20.091 32.373 29.967 55.507 26.423 25.219-3.864 45.887-22.398 51.879-46.34 16.34-1.613 33.138.186 48.753 5.217 3.185 17.42-.016 40.961-12.326 53.963-2.147.774-5.604.134-9.245-.542-2.01-.372-4.089-.758-6.249-.973-10.422-1.048-21.048 2.979-29.147 11.026-8.085 8.034-12.165 18.609-11.192 29.014.068.735.157 1.487.247 2.247.154 1.301.396 3.338.292 4.409-3.712 2.2-8.284 3.631-13.094 5.137-3.492 1.093-7.101 2.222-10.616 3.724-2.559.904-6.62 2.298-8.618 1.43-1.7-.738-3.166-3.597-4.718-6.622-1.371-2.673-2.925-5.703-5.187-8.402-9.674-11.545-25.139-10.407-37.563-9.495-2.89.213-5.619.413-8.209.475-4.141.099-7.418 3.535-7.32 7.677.093 4.144 3.555 7.423 7.677 7.319 2.962-.07 6.008-.295 8.952-.511 12.217-.898 20.555-1.093 24.966 4.17 1.181 1.408 2.228 3.451 3.338 5.613 2.435 4.748 5.467 10.657 12.087 13.534 6.144 2.986 14.814.874 19.839-1.132.159-.056.316-.118.471-.185 2.869-1.241 6.033-2.231 9.383-3.28 6.246-1.955 12.706-3.977 18.503-7.982.496-.342.948-.743 1.347-1.193 4.692-5.289 3.895-12.008 3.367-16.453-.075-.633-.15-1.26-.208-1.874-.545-5.839 2.008-12.187 6.83-16.979 4.836-4.805 11.227-7.325 17.084-6.74 1.534.153 3.219.466 5.004.796 5.963 1.105 13.384 2.48 20.281-1.608.525-.312 1.011-.688 1.446-1.116 17.831-17.622 21.34-48.422 17.056-69.584z"/><path d="m309.125 436.281c-16.16-6.274-31.859-16.163-47.041-25.727-7.704-4.853-15.668-9.87-23.538-14.307-16.725-10.524-29.638-20.455-30.682-39.938-.663-5.068-1.348-10.309-3.339-15.562-.083-.217-.175-.431-.277-.639-6.648-13.582-17.472-23.72-27.94-33.525-10.198-9.551-19.829-18.572-25.184-30.141-.034-.073-.068-.146-.104-.217-1.593-3.17-2.941-6.541-4.368-10.11-2.921-7.308-5.943-14.863-11.418-21.438-.099-.118-.201-.234-.307-.347-16.158-17.129-39.292-24.246-55.854-27.2-2.33-.418-4.718.293-6.444 1.91-1.727 1.617-2.589 3.954-2.327 6.306 2.277 20.411 14.949 45.359 26.13 67.37 6.23 12.805 16.791 31.35 16.852 41.472-11.38 3.612-14.091 1.979-14.202 1.906-.158-.103-.971-.845-1.458-5.38-.018-.165-.041-.329-.069-.493-2.942-16.81-9.012-32.205-18.559-47.066-2.239-3.484-6.879-4.494-10.364-2.257-3.485 2.239-4.495 6.879-2.256 10.364 8.403 13.08 13.757 26.596 16.363 41.312.61 5.474 2.127 12.171 8.171 16.099 6.035 3.922 14.464 3.822 27.335-.322 20.222-8.265 6.356-32.665-8.436-62.427-8.592-16.914-18.113-35.657-22.467-51.58 12.379 3.381 26.322 9.399 36.51 20.107 3.872 4.725 6.302 10.803 8.873 17.232 1.467 3.67 2.984 7.463 4.84 11.17 6.588 14.162 17.722 24.592 28.491 34.678 9.821 9.197 19.101 17.89 24.561 28.847 2.724 7.913 2.232 17.101 5.025 25.473 5.523 17.291 20.981 28.251 35.036 37.165.111.071.224.139.338.203 7.604 4.279 15.119 9.013 23.075 14.024 15.782 9.941 32.102 20.222 49.606 27.018 3.762 1.491 8.21-.377 9.707-4.276 1.497-3.859-.417-8.205-4.279-9.704z"/><path d="m207.436 126.733c0 26.45 21.519 47.969 47.97 47.969 63.638-2.635 63.62-93.311 0-95.937-26.451 0-47.97 21.518-47.97 47.968zm80.939 0c0 18.179-14.79 32.969-32.969 32.969-43.738-1.811-43.726-64.132 0-65.937 18.179 0 32.969 14.789 32.969 32.968z"/></g></g></svg>