<svg xmlns="http://www.w3.org/2000/svg" version="1.1" xmlns:xlink="http://www.w3.org/1999/xlink" width="512" height="512" x="0" y="0" viewBox="0 0 64 64" style="enable-background:new 0 0 512 512" xml:space="preserve" class=""><g><path fill="#080808" fill-rule="evenodd" d="M27.684 14.43h14.77c.786 0 1.2.727.878 1.305L38.374 28.87h3.282c1.59 0 2.408 1.104 1.552 2.57L28.444 52.34c-.866 1.502-2.733 1.012-2.539-.54l3.087-16.323H21.49c-.58 0-1.189-.494-1.015-1.051L26.45 15.48c.173-.557.654-1.051 1.234-1.051z" clip-rule="evenodd" opacity="1" data-original="#ffd670" class=""></path><path fill="#f82929" fill-rule="evenodd" d="M31.998 1.08C49.12 1.08 63 14.924 63 31.998 63 49.076 49.12 62.92 31.998 62.92 14.88 62.92 1 49.076 1 31.998 1 14.924 14.88 1.08 31.998 1.08zm-18.38 12.08 37.267 37.175c4.622-4.736 7.472-11.205 7.472-18.337 0-14.517-11.8-26.29-26.359-26.29a26.3 26.3 0 0 0-18.38 7.452zm33.49 40.382L10.4 16.93a26.118 26.118 0 0 0-4.76 15.067c0 14.521 11.804 26.29 26.36 26.29a26.282 26.282 0 0 0 15.11-4.746z" clip-rule="evenodd" opacity="1" data-original="#ff6464" class=""></path><path fill="#f82929" fill-rule="evenodd" d="M27.819 1.542c17.118 0 30.998 13.844 30.998 30.918 0 15.195-10.984 27.829-25.464 30.432C49.845 62.182 63 48.625 63 31.998 63 14.938 49.145 1.105 32.048 1.08h-.096c-1.874 0-3.706.17-5.488.49.45-.017.902-.028 1.355-.028z" clip-rule="evenodd" opacity="1" data-original="#e34646" class=""></path></g></svg>