<svg version="1.2" xmlns="http://www.w3.org/2000/svg" viewBox="0 0 512 512" width="512" height="512">
	<style>
		.s0 { fill: #808080 } 
	</style>
	<path fill-rule="evenodd" class="s0" d="m256 8.6c137 0 248 110.8 248 247.4 0 136.6-111 247.4-248 247.4-137 0-248-110.8-248-247.4 0-136.6 111-247.4 248-247.4zm-147.1 96.7c0 0-14.4 12-27 30.9-12.7 18.9-23.7 40.4-29.5 66.4-10 45-8.1 68.3-3.9 92.1 4.5 25.2 25.5 67 42.7 90.1 9.2 12.3 51.2 60.2 102.7 72.1 30.6 7.2 62.1 10.9 103.1 5.5 28.8-3.7 75-23.6 110.1-59.7 27.9-28.8 59.8-89.7 59.8-146.7 0-116.2-94.4-210.3-210.9-210.3-13.6-0.1-27.1 1.2-40.4 3.8-13.4 2.6-26.4 6.5-39 11.6-12.5 5.1-24.6 11.4-36 18.8-11.3 7.4-21.9 15.9-31.7 25.4z"/>
	<path fill-rule="evenodd" class="s0" d="m221.5 115.4h118.1c6.3 0 9.6 5.9 7.1 10.5l-39.7 105.1h26.2c12.8 0 19.3 8.8 12.5 20.5l-118.2 167.2c-6.9 12-21.8 8.1-20.3-4.3l24.7-130.6h-60c-4.6 0-9.5-3.9-8.1-8.4l47.8-151.6c1.4-4.4 5.2-8.4 9.9-8.4z"/>
</svg>