<?xml version="1.0" encoding="UTF-8"?>
<svg xmlns="http://www.w3.org/2000/svg" viewBox="0 0 48 48" width="512" height="512"><g id="Gas_Pipe" data-name="Gas Pipe"><path d="M18.18,24a3,3,0,0,0,5.64,0h4.36A3,3,0,0,0,31,26H41a3,3,0,0,0,2.82-2H47a1,1,0,0,0,0-2H44V18h3a1,1,0,0,0,0-2H43.82A3,3,0,0,0,41,14V13a3,3,0,0,0-2-2.82V6h3a3,3,0,0,0,0-6H30a3,3,0,0,0,0,6h3v4.18A3,3,0,0,0,31,13v1a3,3,0,0,0-2.82,2H23.82a3,3,0,0,0-5.64,0H1a1,1,0,0,0,0,2H18v4H13a1,1,0,0,0-1,1v5H8V23a1,1,0,0,0-1-1H1a1,1,0,0,0,0,2H6v4.18a3,3,0,0,0,0,5.64V38a7,7,0,0,0,7,7h8.26a7,7,0,0,0,11.48,0h5.44a3,3,0,0,0,5.64,0H47a1,1,0,0,0,0-2H44V39h3a1,1,0,0,0,0-2H43.82a3,3,0,0,0-5.64,0H32.74a7,7,0,0,0-11.48,0H15a1,1,0,0,1-1-1V33.82a3,3,0,0,0,0-5.64V24ZM28,22H24V18h4ZM30,2H42a1,1,0,0,1,0,2H30A1,1,0,0,1,30,2Zm7,4v4H35V6Zm-4,7a1,1,0,0,1,1-1h4a1,1,0,0,1,1,1v1H33Zm-2,3H41a1,1,0,0,1,1,1v6a1,1,0,0,1-1,1H31a1,1,0,0,1-1-1V17A1,1,0,0,1,31,16Zm-9,1v6a1,1,0,0,1-2,0V17A1,1,0,0,1,22,17Zm1.28,27.3,1.78-1a3,3,0,0,0,3.88,0l1.78,1A4.92,4.92,0,0,1,23.28,44.3ZM27,40a1,1,0,0,1,0,2A1,1,0,0,1,27,40Zm15-2v6a1,1,0,0,1-2,0V38A1,1,0,0,1,42,38Zm-4,1v4H33.71a7,7,0,0,0,0-4Zm-6.28,3.57-1.78-1A3,3,0,0,0,28,38.18V36.1A5,5,0,0,1,31.72,42.57ZM26,36.1v2.08A3,3,0,0,0,24,41c0,.77.5.29-1.72,1.57A5,5,0,0,1,26,36.1ZM15,39h5.29a7,7,0,0,0,0,4H13a5,5,0,0,1-5-5V34h4v2A3,3,0,0,0,15,39Zm-2-7H7a1,1,0,0,1,0-2h6A1,1,0,0,1,13,32Z"/></g></svg>
