<svg fill="none" height="512" viewBox="0 0 32 32" width="512" xmlns="http://www.w3.org/2000/svg"><path clip-rule="evenodd" d="m3 4c-.55228 0-1 .44772-1 1v3c0 .55228.44772 1 1 1v8c-.55228 0-1 .4477-1 1v3c0 .5523.44772 1 1 1h3c.55228 0 1-.4477 1-1h8.1827l-.1823 6.0134c-.0124.4118.2372.7855.6199.9277.3826.1422.8123.021 1.0668-.3009l2.8204-3.5675 4.5163.1398c.4075.0126.7772-.2397.9179-.6264.1408-.3867.0208-.8211-.2977-1.0783l-1.8673-1.5078h2.2233c0 .5523.4477 1 1 1h3c.5523 0 1-.4477 1-1v-3c0-.5523-.4477-1-1-1v-8c.5523 0 1-.44772 1-1v-3c0-.55228-.4477-1-1-1h-3c-.5523 0-1 .44772-1 1h-18c0-.55228-.44772-1-1-1zm17.2999 15h4.7001v-1c0-.5523.4477-1 1-1h1v-8h-1c-.5523 0-1-.44772-1-1v-1h-18v1c0 .55228-.44772 1-1 1h-1v8h1c.55228 0 1 .4477 1 1v1h8.2433l.0628-2.0721c.011-.3624.2237-.6874.5493-.8395.3257-.1522.7084-.1053.9887.121zm-3.319 5.2016.1607-5.3015 4.1001 3.3109-2.1495-.0666c-.298-.0092-.5829.1239-.769.3593z" fill="rgb(0,0,0)" fill-rule="evenodd"/></svg>