<svg version="1.2" xmlns="http://www.w3.org/2000/svg" viewBox="0 0 512 512" width="512" height="512"><style>.a{fill:#5f9fe5}.b{fill:#fff}</style><path fill-rule="evenodd" class="a" d="m117.7 25.6h276.2c50.8 0 92.1 41.2 92.1 92.1v276.2c0 50.8-41.3 92.1-92.1 92.1h-276.2c-50.9 0-92.1-41.3-92.1-92.1v-276.2c0-50.9 41.2-92.1 92.1-92.1z"/><path class="b" d="m430.8 364q-2.1-1.4-4.1-3-1.9-1.6-3.7-3.4-1.8-1.7-3.5-3.6-1.6-1.9-3.1-4c-9.6-10.9-21.9-24.4-44.6-24.4-22.7 0-34.4 13.1-44.5 24.9-10 11.8-16.6 18.7-31.4 18.7-14.8 0-22.3-8.2-31.4-18.7-9.2-10.5-21.4-24.9-44.6-24.9-23.1 0-34.4 13.1-44.5 24.9-10 11.8-16.6 18.7-31.4 18.7-14.8 0-22.3-8.2-31.4-18.7q-2.4-3.1-5-5.9-2.6-2.8-5.5-5.4-3-2.5-6.1-4.7-3.2-2.2-6.6-4.1c-4.3-2.2-9.6-0.4-11.7 3.9-2.2 4.4-0.5 9.6 3.9 11.8q2.6 1.6 5 3.3 2.4 1.8 4.6 3.8 2.3 1.9 4.4 4.1 2 2.2 3.9 4.5c10 11.8 21.8 24.9 44.5 24.9 22.7 0 34.5-13.1 44.5-24.9 10.1-11.8 16.6-18.7 31.4-18.7 14.9 0 22.3 8.3 31.5 18.7 9.1 10.5 21.4 24.9 44.5 24.9 23.1 0 34.5-13.1 44.5-24.9 10.1-11.8 16.6-18.7 31.4-18.7 14.9 0 22.3 8.3 31.5 18.7q1.9 2.5 4 4.8 2 2.3 4.3 4.4 2.2 2.1 4.6 4.1 2.4 2 5 3.8c4.1 2.6 9.5 1.4 12.2-2.7 2.6-4.1 1.5-9.5-2.6-12.2zm0-65.5q-2.1-1.4-4.1-3-1.9-1.6-3.7-3.4-1.8-1.7-3.5-3.6-1.6-1.9-3.1-3.9c-9.6-10.9-21.9-24.5-44.6-24.5-22.7 0-34.4 13.1-44.5 24.9-10 11.8-16.6 18.8-31.4 18.8-14.8 0-22.3-8.3-31.4-18.8-9.2-10.5-21.4-24.9-44.6-24.9-23.1 0-34.4 13.1-44.5 24.9-10 11.8-16.6 18.8-31.4 18.8-14.8 0-22.3-8.3-31.4-18.8q-2.4-3.1-5-5.9-2.6-2.8-5.5-5.3-3-2.6-6.1-4.8-3.2-2.2-6.6-4.1c-4.3-2.1-9.6-0.4-11.7 4-2.2 4.3-0.5 9.6 3.9 11.7q2.6 1.6 5 3.4 2.4 1.7 4.6 3.7 2.3 2 4.4 4.1 2 2.2 3.9 4.6c10 11.7 21.8 24.8 44.5 24.8 22.7 0 34.5-13.1 44.5-24.8 10.1-11.8 16.6-18.8 31.4-18.8 14.9 0 22.3 8.3 31.5 18.8 9.1 10.4 21.4 24.8 44.5 24.8 23.1 0 34.5-13.1 44.5-24.8 10.1-11.8 16.6-18.8 31.4-18.8 14.9 0 22.3 8.3 31.5 18.8q1.9 2.4 4 4.7 2 2.3 4.3 4.4 2.2 2.2 4.6 4.1 2.4 2 5 3.8c4.1 2.6 9.5 1.5 12.2-2.6 2.6-4.1 1.5-9.6-2.6-12.3zm0-69.8q-2.1-1.4-4.1-3-1.9-1.6-3.7-3.4-1.8-1.7-3.5-3.6-1.6-1.9-3.1-4c-9.6-10.9-21.9-24.4-44.6-24.4-22.7 0-34.4 13.1-44.5 24.9-10 11.8-16.6 18.7-31.4 18.7-14.8 0-22.3-8.3-31.4-18.7-9.2-10.5-21.4-24.9-44.6-24.9-23.1 0-34.4 13.1-44.5 24.9-10 11.8-16.6 18.7-31.4 18.7-14.8 0-22.3-8.3-31.4-18.7q-2.4-3.1-5-5.9-2.6-2.8-5.5-5.4-3-2.5-6.1-4.7-3.2-2.2-6.6-4.1c-4.3-2.2-9.6-0.4-11.7 3.9-2.2 4.4-0.5 9.6 3.9 11.8q2.6 1.6 5 3.3 2.4 1.8 4.6 3.8 2.3 1.9 4.4 4.1 2 2.2 3.9 4.5c10 11.8 21.8 24.9 44.5 24.9 22.7 0 34.5-13.1 44.5-24.9 10.1-11.8 16.6-18.7 31.4-18.7 14.9 0 22.3 8.2 31.5 18.7 9.1 10.5 21.4 24.9 44.5 24.9 23.1 0 34.5-13.1 44.5-24.9 10.1-11.8 16.6-18.7 31.4-18.7 14.9 0 22.3 8.2 31.5 18.7q1.9 2.5 4 4.8 2 2.3 4.3 4.4 2.2 2.1 4.6 4.1 2.4 2 5 3.7c4.1 2.7 9.5 1.5 12.2-2.6 2.6-4.1 1.5-9.5-2.6-12.2zm-349.2-83.4q2.6 1.6 5 3.4 2.4 1.7 4.6 3.7 2.3 2 4.4 4.1 2 2.2 3.9 4.6c10 11.7 21.8 24.8 44.5 24.8 22.7 0 34.5-13.1 44.5-24.8 10.1-11.8 16.6-18.8 31.4-18.8 14.9 0 22.3 8.3 31.5 18.8 9.1 10.4 21.4 24.8 44.5 24.8 23.1 0 34.5-13.1 44.5-24.8 10.1-11.8 16.6-18.8 31.4-18.8 14.9 0 22.3 8.3 31.5 18.8q1.9 2.4 4 4.7 2 2.3 4.3 4.4 2.2 2.2 4.6 4.1 2.4 2 5 3.8c4.1 2.6 9.5 1.5 12.2-2.6 2.6-4.1 1.5-9.6-2.6-12.3q-2.1-1.4-4.1-3-1.9-1.6-3.7-3.4-1.8-1.7-3.5-3.6-1.6-1.9-3.1-3.9c-9.6-10.9-21.9-24.5-44.6-24.5-22.7 0-34.4 13.1-44.5 24.9-10 11.8-16.6 18.8-31.4 18.8-14.8 0-22.3-8.3-31.4-18.8-9.2-10.5-21.4-24.9-44.6-24.9-23.1 0-34.4 13.1-44.5 24.9-10 11.8-16.6 18.8-31.4 18.8-14.8 0-22.3-8.3-31.4-18.8q-2.4-3.1-5-5.9-2.6-2.8-5.5-5.3-3-2.6-6.1-4.8-3.2-2.2-6.6-4.1c-4.3-2.1-9.6-0.4-11.7 4-2.2 4.3-0.5 9.6 3.9 11.7z"/></svg>