<svg version="1.2" xmlns="http://www.w3.org/2000/svg" viewBox="0 0 512 512" width="512" height="512">
	<style>
		.s0 { fill: #facc15 } 
		.s1 { fill: #ffffff } 
	</style>
	<path fill-rule="evenodd" class="s0" d="m117.8 25.6h276.4c50.9 0 92.2 41.3 92.2 92.2v276.4c0 50.9-41.3 92.2-92.2 92.2h-276.4c-50.9 0-92.2-41.3-92.2-92.2v-276.4c0-50.9 41.3-92.2 92.2-92.2z"/>
	<path class="s1" d="m401.6 345.6q-5.6-0.1-11.2 0.7-5.6 0.7-11 2.4-5.4 1.6-10.4 4.1-5.1 2.5-9.7 5.7c-4.5 3.1-9.4 5.5-14.6 7.1-5.1 1.6-10.5 2.4-16 2.4-5.4 0-10.8-0.8-15.9-2.4-5.2-1.6-10.1-4-14.6-7.1q-4.6-3.2-9.6-5.7-5.1-2.5-10.5-4.1-5.3-1.6-10.9-2.4-5.6-0.8-11.2-0.7-5.6-0.1-11.2 0.7-5.6 0.7-10.9 2.4-5.4 1.6-10.5 4.1-5 2.4-9.6 5.7-3.3 2.4-7 4.2-3.7 1.9-7.6 3.1-3.9 1.2-8 1.8-4 0.5-8.1 0.4-4.1 0.1-8.1-0.5-4-0.5-7.9-1.7-3.9-1.3-7.5-3.1-3.7-1.8-7-4.2-4.6-3.3-9.6-5.7-5.1-2.5-10.5-4.1-5.3-1.7-10.9-2.4-5.6-0.8-11.2-0.7c-3 0-5.8 1.2-7.9 3.3-2.1 2.1-3.3 4.9-3.3 7.9 0 3 1.2 5.8 3.3 7.9 2.1 2.1 4.9 3.3 7.9 3.3q4.1-0.1 8.1 0.5 4 0.5 7.9 1.8 3.9 1.2 7.5 3 3.7 1.8 7 4.2 4.6 3.2 9.6 5.7 5.1 2.5 10.5 4.1 5.3 1.6 10.9 2.4 5.6 0.8 11.2 0.7 5.6 0.1 11.2-0.7 5.6-0.7 11-2.4 5.4-1.6 10.4-4.1 5.1-2.5 9.7-5.7 3.3-2.4 7-4.2 3.6-1.9 7.5-3.1 3.9-1.2 8-1.7 4-0.6 8.1-0.5 4.1-0.1 8.1 0.5 4.1 0.5 8 1.8 3.9 1.2 7.5 3 3.7 1.8 7 4.2 4.6 3.2 9.6 5.7 5.1 2.5 10.5 4.1 5.3 1.6 10.9 2.4 5.6 0.8 11.2 0.7 5.6 0.1 11.2-0.7 5.6-0.7 10.9-2.4 5.4-1.6 10.5-4.1 5-2.4 9.6-5.7 3.3-2.4 7-4.2 3.6-1.8 7.5-3 3.9-1.2 8-1.8 4-0.6 8.1-0.5c3 0 5.8-1.2 7.9-3.3 2.1-2.1 3.3-4.9 3.3-7.9 0-3-1.2-5.8-3.3-7.9-2.1-2.1-4.9-3.3-7.9-3.3zm-302.4-78.4c0 1.5 0.3 2.9 0.9 4.3 0.5 1.3 1.3 2.6 2.4 3.6 1 1.1 2.3 1.9 3.6 2.4 1.4 0.6 2.8 0.9 4.3 0.9h112c6.6 0 13 1.2 19.2 3.4 6.1 2.3 11.9 5.6 16.9 9.8 5 4.3 9.2 9.3 12.4 15 3.3 5.7 5.5 11.9 6.6 18.4q0.3 2 1.3 3.7 1 1.8 2.6 3.1 1.5 1.3 3.4 2 1.9 0.6 3.9 0.6h1.8c1.5-0.2 2.9-0.7 4.1-1.5 1.3-0.8 2.4-1.8 3.2-3 0.9-1.2 1.5-2.6 1.8-4 0.4-1.4 0.4-2.9 0.2-4.4-1.5-9.1-4.6-17.8-9.2-25.8-4.5-8-10.5-15.2-17.5-21.1-7-6-15-10.7-23.7-13.8-8.6-3.2-17.8-4.8-27-4.8q-6.45 0-12.9-1.5c-4.2-1-8.3-2.5-12.1-4.4-3.9-1.9-7.6-4.3-10.9-7.1-3.3-2.8-6.3-5.9-8.9-9.4h89.6c12.4-0.1 24.8 2.2 36.4 6.6 11.6 4.4 22.3 11 31.5 19.3 9.3 8.3 16.9 18.2 22.5 29.3 5.6 11.1 9.2 23.2 10.4 35.5 0.1 1.4 0.5 2.7 1.2 4 0.6 1.2 1.4 2.3 2.5 3.2 1 1 2.2 1.7 3.5 2.2 1.2 0.5 2.6 0.7 4 0.7h1.1c1.5-0.1 2.9-0.6 4.2-1.3 1.3-0.7 2.5-1.6 3.4-2.8 1-1.1 1.7-2.4 2.1-3.8 0.4-1.5 0.6-2.9 0.4-4.4-1.2-12.4-4.4-24.5-9.2-35.9-4.9-11.5-11.5-22.1-19.5-31.6-8.1-9.4-17.5-17.6-28.1-24.3-10.5-6.6-21.9-11.6-33.9-14.8 2.4-11.5 2.2-23.3-0.6-34.6-2.7-11.4-8-22-15.4-31-7.5-9-16.8-16.2-27.4-21.1-10.6-4.9-22.2-7.4-33.9-7.2h-112c-3 0-5.8 1.2-7.9 3.3-2.1 2.1-3.3 4.9-3.3 7.9 0 3 1.2 5.8 3.3 7.9 2.1 2.1 4.9 3.3 7.9 3.3h57.2c-7.4 7.3-13.3 16-17.4 25.6-4 9.6-6.1 20-6.1 30.4 0 10.4 2.1 20.8 6.1 30.4 4.1 9.6 10 18.3 17.4 25.6h-57.2c-1.5 0-2.9 0.3-4.3 0.9-1.3 0.5-2.6 1.3-3.6 2.4-1.1 1-1.9 2.3-2.4 3.6-0.6 1.4-0.9 2.8-0.9 4.3zm123.2-123.2c7.4 0 14.6 1.4 21.4 4.3 6.8 2.8 13 6.9 18.2 12.1 5.2 5.2 9.3 11.4 12.1 18.2 2.9 6.8 4.3 14 4.3 21.4q0 1.4-0.1 2.8-0.1 1.4-0.3 2.8-0.2 1.4-0.4 2.8-0.2 1.4-0.5 2.8h-109.6q-0.2-1.4-0.5-2.8-0.2-1.4-0.3-2.8-0.1-1.4-0.2-2.8-0.1-1.4-0.1-2.8c0-7.4 1.4-14.6 4.3-21.4 2.8-6.8 6.9-13 12.1-18.2 5.2-5.2 11.4-9.3 18.2-12.1 6.8-2.9 14-4.3 21.4-4.3z"/>
</svg>