<svg version="1.2" xmlns="http://www.w3.org/2000/svg" viewBox="0 0 512 512" width="512" height="512">
	<style>
		.s0 { fill: #facc15 } 
		.s1 { fill: #ffffff } 
	</style>
	<path fill-rule="evenodd" class="s0" d="m117.8 25.6h276.4c50.9 0 92.2 41.3 92.2 92.2v276.4c0 50.9-41.3 92.2-92.2 92.2h-276.4c-50.9 0-92.2-41.3-92.2-92.2v-276.4c0-50.9 41.3-92.2 92.2-92.2z"/>
	<path fill-rule="evenodd" class="s1" d="m203.5 157.1c2.8 0 5.5 0.5 8 1.4q0.2 0 0.4 0 0.1 0 0.2-0.1 0.2-0.1 0.2-0.3 0.1-0.1 0.1-0.3c-2.3-26.6 18.6-49.5 45.4-49.5 23.9 0 43.5 18.4 45.4 41.8q0 0.1 0.1 0.3 0.1 0.1 0.3 0.2 0.1 0.1 0.3 0 0.1 0 0.3-0.1c14.2-9.1 33.5 1 33.5 18.4 0 2.9-0.6 5.6-1.5 8.1q-0.1 0.2-0.1 0.4 0.1 0.1 0.2 0.3 0.1 0.1 0.3 0.2 0.2 0 0.3 0c8.6-2.8 17.9 3.6 17.9 13 0 7.6-6.2 13.7-13.7 13.7h-137.6c-13.1 0-23.7-10.6-23.7-23.7 0-13.2 10.6-23.8 23.7-23.8zm-71 246.3q-0.9-0.4-1.6-1.1-0.6-0.6-1-1.5-0.3-0.9-0.3-1.8v-159c-0.2-13 0-26.1 0-39.1 0-1.2 0.5-2.4 1.3-3.3 0.9-0.9 2.2-1.4 3.4-1.4 1.3 0 2.5 0.5 3.4 1.4 0.9 0.9 1.4 2.1 1.4 3.3 0 0.07 0 33.83 0 33.9q0.1 0.1 0.2 0.2 0.1 0.1 0.2 0.1 0.1 0.1 0.2 0.1h18.4c1.3 0 2.5 0.5 3.4 1.4 0.9 0.9 1.4 2.1 1.4 3.3 0 1.3-0.5 2.5-1.4 3.4-0.9 0.9-2.1 1.4-3.4 1.4h-18.4c-0.3 0-0.6 0.3-0.6 0.6 0 0.07 0 15.93 0 16q0.1 0.1 0.2 0.2 0.1 0.1 0.2 0.1 0.1 0.1 0.2 0.1h5.1c1.2 0 2.4 0.5 3.3 1.4 0.9 0.9 1.4 2.1 1.4 3.4 0 1.2-0.5 2.4-1.4 3.3-0.9 0.9-2.1 1.4-3.3 1.4h-5.1c-0.3 0-0.6 0.3-0.6 0.7 0 0.07 0 15.83 0 15.9q0.1 0.1 0.2 0.2 0.1 0.1 0.2 0.1 0.1 0.1 0.2 0.1h18.4c1.3 0 2.5 0.5 3.4 1.4 0.9 0.9 1.4 2.1 1.4 3.4 0 1.2-0.5 2.4-1.4 3.3-0.9 0.9-2.1 1.4-3.4 1.4h-18.4c-0.3 0-0.6 0.3-0.6 0.7 0 0.07 0 15.83 0 15.9q0.1 0.1 0.2 0.2 0.1 0.1 0.2 0.2 0.1 0 0.2 0h5.1c1.2 0 2.4 0.5 3.3 1.4 0.9 0.9 1.4 2.1 1.4 3.4 0 1.2-0.5 2.4-1.4 3.3-0.9 0.9-2.1 1.4-3.3 1.4h-5.1c-0.3 0-0.6 0.3-0.6 0.7 0 0.07 0 15.83 0 15.9q0.1 0.1 0.2 0.2 0.1 0.1 0.2 0.2 0.1 0 0.2 0h18.4c1.3 0 2.5 0.5 3.4 1.4 0.9 0.9 1.4 2.1 1.4 3.4 0 1.2-0.5 2.4-1.4 3.3-0.9 0.9-2.1 1.4-3.4 1.4h-18.4c-0.3 0-0.6 0.3-0.6 0.7 0 0.07 0 15.83 0 15.9q0.1 0.1 0.2 0.2 0.1 0.1 0.2 0.2 0.1 0 0.2 0h5.1c1.2 0 2.4 0.5 3.3 1.4 0.9 0.9 1.4 2.1 1.4 3.4 0 1.2-0.5 2.4-1.4 3.3-0.9 0.9-2.1 1.4-3.3 1.4h-5.1c-0.3 0-0.6 0.3-0.6 0.7 0 0.07 0 15.83 0 15.9q0.1 0.1 0.2 0.2 0.1 0.1 0.2 0.2 0.1 0 0.2 0h238.1c1.2 0 2.4 0.5 3.3 1.4 0.9 0.9 1.4 2.1 1.4 3.4 0 1.2-0.5 2.4-1.4 3.3-0.9 0.9-2.1 1.4-3.3 1.4h-243.5q-0.9 0-1.8-0.3zm172.6-85.3v52.6c0 8.6-7 15.6-15.5 15.6h-44.6c-8.6 0-15.6-7-15.6-15.6v-2.7c0-0.3 0.3-0.6 0.6-0.6h17.2c1.3 0 2.5-0.5 3.4-1.4 0.9-0.9 1.4-2.1 1.4-3.4 0-1.2-0.5-2.4-1.4-3.3-0.9-0.9-2.1-1.4-3.4-1.4h-17.2q-0.1 0-0.2-0.1-0.1 0-0.2-0.1-0.1-0.1-0.2-0.2 0-0.1 0-0.3v-12.8c0-0.4 0.3-0.6 0.6-0.6h17.2c1.3 0 2.5-0.5 3.4-1.4 0.9-0.9 1.4-2.1 1.4-3.4 0-1.3-0.5-2.5-1.4-3.4-0.9-0.9-2.1-1.4-3.4-1.4-0.07 0-17.33 0-17.4 0q-0.1-0.1-0.2-0.1-0.1-0.1-0.2-0.3 0-0.1 0-0.2v-12.8c0-0.4 0.3-0.7 0.6-0.7h17.2c1.3 0 2.5-0.5 3.4-1.4 0.9-0.9 1.4-2.1 1.4-3.3 0-1.3-0.5-2.5-1.4-3.4-0.9-0.9-2.1-1.4-3.4-1.4l-18.7 0.1q-0.1 0-0.2 0-0.1-0.1-0.2-0.1-0.1-0.1-0.2-0.1 0-0.1-0.1-0.2c-2.7-6.5-7.5-9.2-13.7-11.9-4.6-2-7.4-6.4-7.4-11.4v-6.5c0-2.9 2.4-5.3 5.3-5.3h110.5c2.9 0 5.3 2.4 5.3 5.3v6.5c0 5-2.8 9.4-7.4 11.4q-0.6 0.3-1.2 0.5-0.6 0.3-1.1 0.6-0.6 0.3-1.2 0.5-0.5 0.3-1.1 0.6c-6.7 3.5-10.7 10-10.7 17.5zm8-60.7c-5.4 0-9.9-4.8-10.1-10.8-0.3-7.4 5.2-16 9.3-21.3 0.6-0.7 1-0.6 1.6 0 4.4 5.3 9.5 13.5 9.3 21-0.1 6.2-4.6 11.1-10.1 11.1zm-45.8 0c-5.5 0-9.9-4.8-10.2-10.8-0.3-7.4 5.2-16 9.4-21.3 0.5-0.7 1-0.6 1.5 0 4.5 5.3 9.6 13.5 9.4 21-0.2 6.2-4.6 11.1-10.1 11.1zm-45.9 0c-5.4 0-9.9-4.8-10.1-10.8-0.3-7.4 5.2-16 9.4-21.3 0.5-0.7 0.9-0.6 1.5 0 4.4 5.3 9.5 13.5 9.3 21-0.1 6.2-4.6 11.1-10.1 11.1z"/>
</svg>