<svg version="1.2" xmlns="http://www.w3.org/2000/svg" viewBox="0 0 512 512" width="512" height="512"><style>.a{fill:#5f9fe5}.b{fill:#fff}</style><path fill-rule="evenodd" class="a" d="m117.8 25.6h276.4c50.9 0 92.2 41.3 92.2 92.2v276.4c0 50.9-41.3 92.2-92.2 92.2h-276.4c-50.9 0-92.2-41.3-92.2-92.2v-276.4c0-50.9 41.3-92.2 92.2-92.2z"/><path class="b" d="m256.3 194.4c-38.4 0-74.5-3.8-101.8-10.6-20.4-5.1-44.7-14.3-44.7-29.1 0-14.8 24.3-24 44.7-29.1 27.3-6.7 63.4-10.6 101.8-10.6 14.2 0 28.2 0.5 41.7 1.6 2.2 0.1 3.8 2 3.6 4.3-0.1 2.2-2 3.8-4.3 3.6-13.3-1-27-1.5-41.1-1.5-37.7 0-73.1 3.7-99.7 10.4-28.6 7.1-38.8 15.7-38.8 21.3 0 5.7 10.2 14.2 38.8 21.4 26.6 6.6 62 10.3 99.7 10.3 14.1 0 27.8-0.5 41.1-1.5 2.2-0.2 4.2 1.5 4.3 3.7 0.2 2.2-1.5 4.1-3.6 4.3-13.5 1-27.5 1.5-41.7 1.5zm105.7-11.7c-1.7 0-3.3-1.2-3.8-3-0.6-2.1 0.6-4.3 2.8-4.8 25-7 33.9-14.9 33.9-20.1 0-5.2-8.9-13.2-34-20.1-2.2-0.5-3.3-2.8-2.8-4.8 0.6-2.1 2.8-3.4 4.9-2.8 26.4 7.3 39.8 16.6 39.8 27.8 0 11.1-13.4 20.4-39.8 27.7-0.3 0.1-0.7 0.1-1 0.1z"/><path class="b" d="m256.3 178.6c-34 0-66.1-2.1-90.2-5.8-35.9-5.6-40.5-12.5-40.5-17.9 0-5.4 4.6-12.4 40.5-18 24.1-3.7 56.1-5.8 90.2-5.8 14.3 0 28.2 0.4 41.6 1.1 2.2 0.1 3.9 2 3.7 4.3 0 2.2-1.9 3.9-4.2 3.7-13.2-0.7-27.1-1-41.2-1-32.1 0-62.7 1.9-86.1 5.3-30 4.4-35.6 9.4-36.5 10.5 0.9 1.1 6.4 6.2 36.5 10.5 23.4 3.5 54 5.4 86.1 5.4 14.1 0 28-0.4 41.2-1.1 2.3-0.1 4.1 1.6 4.2 3.8 0.1 2.2-1.6 4-3.7 4.2-13.4 0.4-27.4 0.8-41.6 0.8zm105.6-8.9c-1.8 0-3.4-1.3-3.9-3.1-0.4-2.2 0.8-4.3 3-4.8 14-3.3 17.3-6.2 17.9-7.1-0.6-0.8-3.9-3.7-17.9-7.1-2.2-0.5-3.5-2.6-3-4.8 0.5-2.1 2.7-3.5 4.8-2.9 16.7 3.9 24.1 8.5 24.1 14.8 0 6.3-7.4 10.9-24.1 14.8-0.3 0.2-0.6 0.2-0.9 0.2z"/><path class="b" d="m256.3 403.2c-38.4 0-74.4-3.3-101.6-9.2-29.8-6.6-44.9-15.3-44.9-26v-213.2c0-2.2 1.7-4 4-4 2.2 0 3.9 1.8 3.9 4v213.2c0 3.6 8.2 11.5 38.7 18.2 26.7 5.8 62.1 9 99.9 9 37.9 0 73.3-3.2 100-9 30.5-6.7 38.6-14.6 38.6-18.2v-213.2c0-2.2 1.8-4 4-4 2.2 0 4 1.8 4 4v213.2c0 10.7-15.2 19.4-44.9 26-27.3 5.9-63.4 9.2-101.7 9.2z"/><path class="b" d="m255.9 386.7c-50.5 0-114.8-5.5-129.8-21-0.7-0.7-1.1-1.8-1.1-2.8v-192.1c0-2.2 1.7-4 4-4 2.2 0 4 1.8 4 4v190.3c12.6 10.5 62.4 17.6 122.9 17.6 61 0 111-7.1 123.7-17.6v-190.3c0-2.2 1.8-4 4-4 2.2 0 4 1.8 4 4v192.1c0 1-0.4 2-1.1 2.8-15 15.5-79.8 21-130.6 21z"/><path class="b" d="m256.3 424.1c-46.2 0-89.6-3.2-122.3-9-16.1-2.9-28.8-6.3-37.8-10.1-10.7-4.5-15.9-9.7-15.9-15.7 0-8.6 11-15.6 33.5-21.4 2.1-0.5 4.3 0.7 4.8 2.9 0.6 2.1-0.7 4.3-2.8 4.8-21.8 5.6-27.5 11.3-27.5 13.7 0 3.2 9.9 11.2 47 17.9 32.3 5.8 75.2 9 121 9 45.8 0 88.7-3.2 121-9 37.3-6.7 47.1-14.7 47.1-17.9 0-2.5-5.8-8.1-27.6-13.7-2.1-0.6-3.4-2.7-2.9-4.9 0.6-2.1 2.8-3.4 4.9-2.9 22.5 5.9 33.5 12.9 33.5 21.5 0 5.9-5.2 11.1-16 15.7-8.9 3.8-21.6 7.1-37.7 10-32.7 6-76.2 9.1-122.3 9.1z"/><path class="b" d="m297.7 385.5c-2.3 0-4-1.7-4-4v-288c0-2.2 1.7-3.9 4-3.9 2.2 0 3.9 1.7 3.9 3.9v288c0 2.3-1.7 4-3.9 4zm64.2-8.7c-2.2 0-3.9-1.7-3.9-3.9v-279.4c0-2.2 1.7-3.9 3.9-3.9 2.3 0 4 1.7 4 3.9v279.4c0 2.1-1.8 3.9-4 3.9z"/><path class="b" d="m361.9 163.6h-64.2c-2.3 0-4-1.7-4-4 0-2.2 1.7-3.9 4-3.9h64.2c2.3 0 4 1.7 4 3.9 0 2.3-1.8 4-4 4zm0 39.1h-64.2c-2.3 0-4-1.8-4-4 0-2.3 1.7-4 4-4h64.2c2.3 0 4 1.7 4 4 0 2.2-1.8 4-4 4zm0 38.9h-64.2c-2.3 0-4-1.8-4-4 0-2.2 1.7-4 4-4h64.2c2.3 0 4 1.8 4 4 0 2.2-1.8 4-4 4zm0 39h-64.2c-2.3 0-4-1.7-4-4 0-2.2 1.7-3.9 4-3.9h64.2c2.3 0 4 1.7 4 3.9 0 2.3-1.8 4-4 4zm0 39h-64.2c-2.3 0-4-1.8-4-4 0-2.2 1.7-4 4-4h64.2c2.3 0 4 1.8 4 4 0 2.2-1.8 4-4 4zm0 39h-64.2c-2.3 0-4-1.8-4-4 0-2.2 1.7-4 4-4h64.2c2.3 0 4 1.8 4 4 0 2.2-1.8 4-4 4zm-217.6-6.9c-2.2 0-3.9-1.7-3.9-3.9v-140.9c0-2.3 1.7-4 3.9-4 2.3 0 4 1.7 4 4v140.9c0 2.1-1.7 3.9-4 3.9z"/></svg>