<?xml version="1.0" encoding="UTF-8"?>
<svg xmlns="http://www.w3.org/2000/svg" xmlns:xlink="http://www.w3.org/1999/xlink" version="1.1" width="512" height="512" x="0" y="0" viewBox="0 0 24 24" style="enable-background:new 0 0 512 512" xml:space="preserve" class="">
  <rect width="24" height="24" rx="4.8" ry="4.8" fill="#808080" shape="rounded" transform="matrix(0.9,0,0,0.9,1.1999999999999993,1.1999999999999993)"/>
  <g transform="matrix(0.9600000000000006,0,0,0.9600000000000006,0.4799999999999951,0.4799999999999951)">
    <rect width="22" height="22" x="1" y="1" fill="#808080" rx="6" opacity="1" data-original="#64ef82" class=""/>
    <path fill="#ffffff" d="M19.333 18.875h-2.291V14.75c0-.758-.617-1.375-1.375-1.375V8.792h.458v.458c0 .253.205.458.458.458h1.375a.458.458 0 1 0 0-.916h-.916v-.459a.458.458 0 0 0-.459-.458h-.916v-.917h.175a.917.917 0 0 0 .82-1.326l-.332-.664a1.367 1.367 0 0 0-1.23-.76H8.9c-.524 0-.995.291-1.23.76l-.332.664a.917.917 0 0 0 .82 1.326h.175v.917h-.458a.458.458 0 1 0 0 .917h.458v4.583c-.758 0-1.375.617-1.375 1.375v4.125H4.667a.458.458 0 1 0 0 .917h14.666a.458.458 0 1 0 0-.917zm-9.166-5.5H9.25V8.792h.917zm4.583 0h-3.667V8.792h.459a.458.458 0 1 0 .916 0h.459a.458.458 0 1 0 .916 0h.917zm0-5.5h-.917a.458.458 0 1 0-.916 0h-.459a.458.458 0 1 0-.916 0h-.459a.458.458 0 1 0-.916 0H9.25v-.917h5.5z" opacity="1" data-original="#025e16" class=""/>
  </g>
</svg>
