<svg version="1.2" xmlns="http://www.w3.org/2000/svg" viewBox="0 0 512 512" width="512" height="512">
	<style>
		.s0 { fill: #facc15 } 
		.s1 { fill: #ffffff } 
	</style>
	<path fill-rule="evenodd" class="s0" d="m117.76 25.6h276.48c50.9 0 92.16 41.26 92.16 92.16v276.48c0 50.9-41.26 92.16-92.16 92.16h-276.48c-50.9 0-92.16-41.26-92.16-92.16v-276.48c0-50.9 41.26-92.16 92.16-92.16z"/>
	<g>
		<path fill-rule="evenodd" class="s0" d="m153.6 30.72h204.8c67.86 0 122.88 55.02 122.88 122.88v204.8c0 67.86-55.02 122.88-122.88 122.88h-204.8c-67.86 0-122.88-55.02-122.88-122.88v-204.8c0-67.86 55.02-122.88 122.88-122.88z"/>
		<path class="s1" d="m406.18 396.8h-46.92v-84.48c0-15.52-12.64-28.16-28.16-28.16v-93.86h9.38v9.38c0 5.18 4.2 9.38 9.38 9.38h28.16c2.49 0 4.87-0.99 6.63-2.75 1.76-1.76 2.75-4.14 2.75-6.63 0-2.49-0.99-4.87-2.75-6.63-1.76-1.76-4.14-2.75-6.63-2.75h-18.76v-9.4c0-1.23-0.24-2.46-0.72-3.59-0.47-1.14-1.16-2.18-2.03-3.05-0.88-0.87-1.91-1.56-3.05-2.03-1.14-0.47-2.37-0.71-3.6-0.71h-18.76v-18.78h3.58c3.2 0 6.35-0.82 9.14-2.38 2.79-1.56 5.14-3.8 6.82-6.52 1.68-2.72 2.64-5.83 2.79-9.02 0.15-3.2-0.53-6.37-1.95-9.24l-6.8-13.6c-1.16-2.33-2.63-4.49-4.39-6.41-1.75-1.93-3.77-3.6-5.98-4.97-2.22-1.37-4.61-2.42-7.12-3.13-2.5-0.71-5.1-1.06-7.7-1.05h-126.98c-10.73 0-20.38 5.96-25.19 15.56l-6.8 13.6c-1.42 2.87-2.1 6.04-1.95 9.24 0.15 3.19 1.11 6.3 2.79 9.02 1.68 2.72 4.03 4.96 6.82 6.52 2.79 1.56 5.94 2.38 9.14 2.38h3.58v18.78h-9.38c-2.49 0.01-4.87 1-6.63 2.76-1.76 1.76-2.75 4.14-2.75 6.63 0 2.49 0.99 4.87 2.75 6.63 1.76 1.76 4.14 2.75 6.63 2.75l9.38 0.01v93.86c-15.52 0-28.16 12.64-28.16 28.16v84.48h-46.92c-2.49 0.01-4.87 1-6.63 2.76-1.76 1.76-2.75 4.14-2.75 6.63 0 2.49 0.99 4.87 2.75 6.63 1.76 1.76 4.14 2.75 6.63 2.75l300.36 0.01c2.49-0.01 4.87-1 6.63-2.76 1.76-1.76 2.75-4.14 2.75-6.63 0-2.49-0.99-4.87-2.75-6.63-1.76-1.76-4.14-2.75-6.63-2.76zm-187.72-112.64h-18.78v-93.86h18.78zm93.86 0h-75.1v-93.86h9.4c0 2.49 0.99 4.87 2.75 6.63 1.76 1.76 4.14 2.75 6.63 2.75 2.49 0 4.87-0.99 6.63-2.75 1.76-1.76 2.75-4.14 2.75-6.63h9.4c0 2.49 0.99 4.87 2.75 6.63 1.76 1.76 4.14 2.75 6.63 2.75 2.49 0 4.87-0.99 6.63-2.75 1.76-1.76 2.75-4.14 2.75-6.63h18.78zm0-112.64h-18.78c0-2.49-0.99-4.87-2.75-6.63-1.76-1.76-4.14-2.75-6.63-2.75-2.49 0-4.87 0.99-6.63 2.75-1.76 1.76-2.75 4.14-2.75 6.63h-9.4c0-2.49-0.99-4.87-2.75-6.63-1.76-1.76-4.14-2.75-6.63-2.75-2.49 0-4.87 0.99-6.63 2.75-1.76 1.76-2.75 4.14-2.75 6.63h-9.4c0-2.49-0.99-4.87-2.75-6.63-1.76-1.76-4.14-2.75-6.63-2.75-2.49 0-4.87 0.99-6.63 2.75-1.76 1.76-2.75 4.14-2.75 6.63h-18.78v-18.78h112.64z"/>
	</g>
</svg>